<?xml version="1.0" encoding="utf-8"?>
<!-- Generator: Adobe Illustrator 27.5.0, SVG Export Plug-In . SVG Version: 6.00 Build 0)  -->
<svg version="1.1" xmlns="http://www.w3.org/2000/svg" xmlns:xlink="http://www.w3.org/1999/xlink" x="0px" y="0px"
	 viewBox="0 0 499.999 500" style="enable-background:new 0 0 499.999 500;" xml:space="preserve">
<g id="BACKGROUND">
</g>
<g id="OBJECTS">
	<g>
		<linearGradient id="SVGID_1_" gradientUnits="userSpaceOnUse" x1="208.3089" y1="107.4032" x2="238.3089" y2="159.9031">
			<stop  offset="0" style="stop-color:#F0C83B"/>
			<stop  offset="0.5201" style="stop-color:#E8A93E"/>
			<stop  offset="1" style="stop-color:#E07935"/>
		</linearGradient>
		<path style="fill:url(#SVGID_1_);" d="M290.06,123.254c-8.919,2.675-17.351,6.776-25.073,11.602
			c-0.007,0.007-0.022,0.007-0.03,0.015c-17.543,10.966-31.42,25.671-38.943,35.928c-10.84,14.779-30.859,34.59-49.266,15.518
			c-3.015-3.126-4.766-6.983-5.372-11.225c-2.136-14.809,9.636-34.302,30.009-43.709C239.811,113.647,309.76,117.342,290.06,123.254
			z"/>
		
			<linearGradient id="SVGID_00000119078891806461647330000002964208834504649106_" gradientUnits="userSpaceOnUse" x1="272.8812" y1="116.3929" x2="195.3805" y2="192.8937">
			<stop  offset="0" style="stop-color:#251665"/>
			<stop  offset="0.505" style="stop-color:#A500AA"/>
			<stop  offset="1" style="stop-color:#D74250"/>
		</linearGradient>
		<path style="fill:url(#SVGID_00000119078891806461647330000002964208834504649106_);" d="M301.539,129.49
			c-0.11,0.06-0.21,0.13-0.31,0.19c-1.91,1.09-6.53,2.92-10.05,4.78c-10.47,5.52-27.68,18.33-37.21,27.52
			c-11.86,11.44-22.74,25.13-32,39.6c-12.02,18.75-33.89,34.25-53.84,15.77c-8.42-7.8-10.86-21.43-0.85-36.75
			c1.19-1.81,2.55-3.65,4.1-5.51c0.58,4.11,2.24,7.85,5.09,10.93c0.04,0.04,0.08,0.09,0.13,0.13c0.04,0.06,0.1,0.11,0.15,0.17
			c18.41,19.07,38.42-0.74,49.27-15.52c7.52-10.26,21.4-24.96,38.94-35.93c0.01-0.01,0.02-0.01,0.03-0.01
			c11.69-5.77,21.31-7.33,27.87-7.37c4.82-0.03,7.99,0.76,9.12,1.29C302.259,128.91,302.069,129.17,301.539,129.49z"/>
		
			<linearGradient id="SVGID_00000129895898730161565090000004055178191414459816_" gradientUnits="userSpaceOnUse" x1="175.0685" y1="151.5711" x2="239.5685" y2="203.0711">
			<stop  offset="0" style="stop-color:#F0C83B"/>
			<stop  offset="0.5201" style="stop-color:#E8A93E"/>
			<stop  offset="1" style="stop-color:#E07935"/>
		</linearGradient>
		<path style="fill:url(#SVGID_00000129895898730161565090000004055178191414459816_);" d="M301.225,129.683
			c-5.018,3.155-12.947,12.51-18.681,19.708c-0.007,0-0.007,0.007-0.015,0.007c-1.899,2.38-3.554,4.522-4.788,6.126
			c-12.533,16.301-36.216,53.559-43.103,68.967c-9.392,21.023-41.167,56.316-69.779,40.776c-0.177-0.096-0.362-0.2-0.539-0.303
			c-0.044-0.022-0.089-0.052-0.133-0.074c-28.812-16.493-21.925-57.616,3.096-84.285c-10.013,15.318-7.574,28.945,0.85,36.748
			c19.952,18.474,41.817,2.978,53.833-15.777c9.267-14.469,20.144-28.154,32.004-39.593c9.532-9.193,26.735-21.999,37.214-27.519
			C294.7,132.602,299.319,130.769,301.225,129.683z"/>
		<path style="fill:none;" d="M167.305,180.582c-0.007,0.007-0.015,0.015-0.022,0.022"/>
		
			<linearGradient id="SVGID_00000078738098293474392940000009952606905959317908_" gradientUnits="userSpaceOnUse" x1="180.2368" y1="294.7252" x2="265.7348" y2="167.228">
			<stop  offset="0" style="stop-color:#D74250"/>
			<stop  offset="0.495" style="stop-color:#A500AA"/>
			<stop  offset="1" style="stop-color:#251665"/>
		</linearGradient>
		<path style="fill:url(#SVGID_00000078738098293474392940000009952606905959317908_);" d="M309.369,141.05
			c-9.59,9.8-23,16.96-40.5,51.42c-9.17,18.08-24.14,59.86-32.75,72.42c-2.24,3.25-4.98,6.72-8.27,10.02
			c-9.45,9.48-23.43,17.67-42.97,15.84c-9.43-0.88-15.27-5.5-18.25-11.58c0,0-0.01-0.02-0.01-0.03c-1.77-3.62-2.54-7.74-2.43-11.92
			c0.01-0.75,0.05-1.51,0.13-2.26c0.18,0.11,0.36,0.21,0.54,0.31c28.61,15.54,60.39-19.76,69.78-40.78
			c6.89-15.41,30.57-52.66,43.1-68.97c1.24-1.6,2.89-3.74,4.79-6.12c0.01,0,0.01-0.01,0.02-0.01c4.15-2.44,7.91-4.3,11.22-5.7
			C304.799,139.04,310.82,139.56,309.369,141.05z"/>
		
			<linearGradient id="SVGID_00000031177443156886375280000002559234915599214233_" gradientUnits="userSpaceOnUse" x1="222.601" y1="212.1933" x2="268.601" y2="232.6933">
			<stop  offset="0" style="stop-color:#F0C83B"/>
			<stop  offset="0.5201" style="stop-color:#E8A93E"/>
			<stop  offset="1" style="stop-color:#E07935"/>
		</linearGradient>
		<path style="fill:url(#SVGID_00000031177443156886375280000002559234915599214233_);" d="M309.369,141.048
			c-0.754,1.478-6.229,11.528-11.853,23.27c0,0.007,0,0.007-0.007,0.015c-4.168,8.72-8.431,18.378-10.9,26.152
			c-4.914,15.466-19.228,64.74-22.169,73.423c-5.498,16.25-13.493,27.896-23.321,35.462c-0.333,0.259-0.665,0.502-0.998,0.746
			c-10.685,7.826-23.454,10.974-37.509,10.094c-17.816-1.116-31.31-12.496-35.987-31.036c2.985,6.082,8.823,10.693,18.252,11.579
			c19.538,1.825,33.526-6.362,42.97-15.843c3.296-3.303,6.037-6.769,8.269-10.02c8.616-12.562,23.58-54.343,32.758-72.418
			C286.365,158.014,299.784,150.846,309.369,141.048z"/>
		<line style="fill:none;" x1="281.887" y1="175.143" x2="281.887" y2="175.136"/>
		
			<linearGradient id="SVGID_00000037688376081003761670000015935786154897313408_" gradientUnits="userSpaceOnUse" x1="257.3618" y1="225.4901" x2="309.8619" y2="242.4901">
			<stop  offset="0" style="stop-color:#F0C83B"/>
			<stop  offset="0.5201" style="stop-color:#E8A93E"/>
			<stop  offset="1" style="stop-color:#E07935"/>
		</linearGradient>
		<path style="fill:url(#SVGID_00000037688376081003761670000015935786154897313408_);" d="M311.541,270.055v0.007
			c-0.015,0.325-0.03,0.658-0.052,0.983c-1.271,24.43-16.198,41.647-35.647,43.598c-14.232,1.426-27.496-3.414-35.721-14.528
			c0.333-0.244,0.665-0.488,0.998-0.746c3.473,2.254,7.678,3.495,12.725,3.451c25.945-0.229,35.928-28.989,37.133-50.256
			c4.027-70.94,19.368-94.017,20.499-96.751c-0.333,4.958-5.668,19.996-6.392,34.672c-0.2,4.035-0.259,7.959-0.214,11.772v0.007
			c0.303,23.905,4.87,43.332,6.37,58.437C311.556,263.914,311.652,267.04,311.541,270.055z"/>
		
			<linearGradient id="SVGID_00000109741524037956822750000007816456210876302757_" gradientUnits="userSpaceOnUse" x1="295.8686" y1="224.4783" x2="337.8688" y2="226.9783">
			<stop  offset="0" style="stop-color:#F0C83B"/>
			<stop  offset="0.5201" style="stop-color:#E8A93E"/>
			<stop  offset="1" style="stop-color:#E07935"/>
		</linearGradient>
		<path style="fill:url(#SVGID_00000109741524037956822750000007816456210876302757_);" d="M332.668,271.784
			c-7.973,3.059-15.016,2.387-21.178-0.739c0.022-0.325,0.037-0.658,0.052-0.983c2.852,0.525,5.705,0.185,8.564-1.086
			c13.057-5.808,8.993-28.841,3.451-41.034c-5.291-11.639-8.675-29.07-9.976-50.145c5.971,26.536,19.206,36.327,27.216,46.82
			C348.445,234.629,359.026,261.69,332.668,271.784z"/>
		<g>
			<path style="fill:#F0C83B;" d="M164.179,186.092c-1.675,3.626-2.823,7.506-3.19,11.472c-0.32,3.961,0.205,8.005,1.766,11.647
				c0.786,1.812,1.769,3.54,2.981,5.1c1.224,1.553,2.654,2.916,4.185,4.183c1.539,1.245,3.148,2.412,4.882,3.359
				c1.708,0.994,3.541,1.754,5.42,2.331c1.876,0.597,3.835,0.903,5.793,1.004c1.96,0.109,3.935-0.017,5.866-0.393
				c3.876-0.701,7.558-2.286,10.939-4.32c6.761-4.138,12.343-10.02,16.911-16.485c8.647-13.401,18.266-26.362,29.483-37.801
				c5.561-5.768,11.682-10.98,18.018-15.855c6.366-4.842,12.928-9.44,19.803-13.52c-6.79,4.219-13.248,8.945-19.502,13.906
				c-6.268,4.951-12.293,10.193-17.766,16.004c-5.502,5.775-10.695,11.844-15.539,18.181c-2.425,3.167-4.768,6.396-7.031,9.68
				c-1.133,1.641-2.24,3.3-3.334,4.967c-1.088,1.664-2.147,3.37-3.315,5.014c-4.657,6.535-10.333,12.483-17.258,16.687
				c-3.463,2.066-7.249,3.682-11.254,4.392c-3.988,0.757-8.176,0.504-12.039-0.729c-1.929-0.617-3.804-1.42-5.54-2.456
				c-1.764-0.99-3.39-2.198-4.94-3.482c-1.534-1.298-2.992-2.719-4.226-4.324c-1.222-1.614-2.216-3.391-2.986-5.256
				c-1.519-3.753-1.962-7.869-1.559-11.856C161.198,193.549,162.431,189.683,164.179,186.092z"/>
		</g>
		
			<linearGradient id="SVGID_00000085239621332194645250000010842373143997719948_" gradientUnits="userSpaceOnUse" x1="247.6076" y1="317.7097" x2="304.6068" y2="192.2118">
			<stop  offset="0" style="stop-color:#D74250"/>
			<stop  offset="0.495" style="stop-color:#A500AA"/>
			<stop  offset="1" style="stop-color:#251665"/>
		</linearGradient>
		<path style="fill:url(#SVGID_00000085239621332194645250000010842373143997719948_);" d="M311.49,155.52
			c0,0.09-0.01,0.19-0.01,0.28v0.01c-1.14,2.74-16.48,25.81-20.5,96.75c-1.21,21.27-11.19,50.03-37.14,50.26
			c-2.77,0.02-5.29-0.34-7.57-1.06c-1.87-0.57-3.58-1.38-5.15-2.39c9.83-7.57,17.82-19.21,23.32-35.46
			c2.94-8.69,17.26-57.96,22.17-73.43c2.47-7.77,6.73-17.43,10.9-26.15c0.01-0.01,0.01-0.01,0.01-0.01c1.95-2.26,5.2-4.62,8.14-6.34
			C308.179,156.53,310.46,155.54,311.49,155.52z"/>
		<g>
			<path style="fill:#F0C83B;" d="M243.019,300.462c3.217,1.591,6.82,2.263,10.379,2.234c3.567-0.019,7.128-0.619,10.46-1.843
				c6.745-2.36,12.236-7.41,16.122-13.308c3.899-5.942,6.519-12.667,8.212-19.572c0.857-3.455,1.472-6.969,1.874-10.506
				c0.412-3.528,0.531-7.106,0.789-10.685c0.983-14.296,2.567-28.565,5.129-42.673c1.315-7.047,2.871-14.051,4.786-20.959
				c0.988-3.445,2.04-6.872,3.244-10.247c1.182-3.382,2.495-6.718,3.979-9.976c-1.41,3.291-2.644,6.653-3.747,10.055
				c-1.125,3.395-2.096,6.839-3.003,10.297c-1.813,6.917-3.282,13.921-4.501,20.966c-1.177,7.053-2.198,14.131-3.013,21.236
				c-0.77,7.109-1.433,14.232-1.877,21.37l-0.364,5.352c-0.118,1.791-0.252,3.591-0.475,5.376
				c-0.422,3.574-1.058,7.124-1.939,10.614c-1.754,6.966-4.389,13.799-8.458,19.78c-2.05,2.964-4.407,5.752-7.217,8.033
				c-2.783,2.301-5.952,4.159-9.379,5.306c-3.417,1.168-7.032,1.689-10.624,1.627C249.808,302.888,246.199,302.126,243.019,300.462z
				"/>
		</g>
		<g>
			<path style="fill:#F0C83B;" d="M169.363,283.368c2.968,3.448,7.154,5.677,11.552,6.622c2.199,0.517,4.459,0.652,6.714,0.753
				c2.255,0.084,4.514,0.043,6.759-0.151c4.489-0.371,8.939-1.292,13.162-2.851c4.223-1.557,8.221-3.692,11.907-6.266
				c7.307-5.229,13.51-12.043,18.096-19.756c2.247-3.9,4.147-8.012,6.049-12.109c1.876-4.114,3.667-8.27,5.432-12.437l10.523-25.048
				c3.547-8.328,7.1-16.702,11.496-24.648c2.187-3.974,4.434-7.917,6.895-11.731c2.426-3.833,5.023-7.562,7.835-11.124
				c2.812-3.561,5.831-6.957,9.049-10.15c3.205-3.209,6.644-6.162,10.038-9.158c-3.34,3.057-6.725,6.071-9.865,9.33
				c-3.153,3.244-6.1,6.682-8.837,10.278c-2.757,3.581-5.311,7.317-7.688,11.161c-2.413,3.823-4.612,7.775-6.751,11.757
				c-4.272,7.972-7.831,16.289-11.335,24.638l-10.443,25.086c-1.781,4.166-3.589,8.323-5.484,12.443
				c-1.924,4.107-3.84,8.223-6.13,12.168c-4.703,7.819-10.953,14.711-18.444,19.928c-3.763,2.573-7.839,4.696-12.132,6.229
				c-4.293,1.533-8.803,2.428-13.338,2.744c-2.269,0.155-4.547,0.156-6.813,0.031c-2.263-0.142-4.541-0.319-6.752-0.881
				C176.439,289.194,172.266,286.869,169.363,283.368z"/>
		</g>
		<path style="fill:none;" d="M311.49,155.524c0.074,0,0.066,0.089-0.015,0.281"/>
		
			<linearGradient id="SVGID_00000044878351100866531880000003052025181646295447_" gradientUnits="userSpaceOnUse" x1="296.3793" y1="290.0235" x2="319.3775" y2="219.029">
			<stop  offset="0" style="stop-color:#D74250"/>
			<stop  offset="0.495" style="stop-color:#A500AA"/>
			<stop  offset="1" style="stop-color:#251665"/>
		</linearGradient>
		<path style="fill:url(#SVGID_00000044878351100866531880000003052025181646295447_);" d="M320.109,268.98
			c-1.87,0.83-3.74,1.26-5.6,1.31c-0.99,0.03-1.98-0.05-2.97-0.23v-0.01c0.11-3.01,0.02-6.14-0.3-9.35
			c-0.75-7.55-2.27-16.18-3.64-25.92c-1.36-9.73-2.58-20.56-2.73-32.52c1.4-6.79,2.94-13.19,4.33-18.02
			c1.53-5.3,2.88-8.72,3.67-8.72c0.37,0,0.61,0.71,0.71,2.28c1.3,21.07,4.69,38.5,9.98,50.14
			C329.099,240.13,333.159,263.17,320.109,268.98z"/>
		<g>
			<path style="fill:#F0C83B;" d="M314.593,270.29c3.959-0.276,7.848-2.119,10.193-5.278c2.361-3.159,3.287-7.152,3.538-11.055
				c0.225-3.935-0.129-7.899-0.858-11.783c-0.734-3.885-1.823-7.708-3.259-11.387c-0.692-1.837-1.573-3.629-2.295-5.512
				c-0.751-1.861-1.38-3.764-1.992-5.669c-1.183-3.824-2.158-7.707-2.916-11.63c-1.544-7.84-2.47-15.78-2.952-23.735
				c0.456,3.959,0.934,7.913,1.559,11.845c0.592,3.935,1.291,7.853,2.146,11.734c0.872,3.876,1.814,7.737,3.03,11.512
				c0.621,1.882,1.257,3.76,2.012,5.589c0.716,1.833,1.613,3.616,2.338,5.504c1.433,3.755,2.506,7.636,3.222,11.585
				c0.695,3.947,1.08,7.983,0.728,12.004c-0.35,3.981-1.385,8.083-3.917,11.299C322.604,268.488,318.566,270.239,314.593,270.29z"/>
		</g>
		
			<linearGradient id="SVGID_00000117659789026314488520000017671458472404650128_" gradientUnits="userSpaceOnUse" x1="187.7623" y1="199.395" x2="257.0122" y2="136.395">
			<stop  offset="0" style="stop-color:#D74250"/>
			<stop  offset="0.495" style="stop-color:#A500AA"/>
			<stop  offset="1" style="stop-color:#251665"/>
		</linearGradient>
		<path style="fill:url(#SVGID_00000117659789026314488520000017671458472404650128_);" d="M292.859,127.49
			c-8.87,2.67-17.25,6.76-24.93,11.56c-0.01,0.01-0.02,0.01-0.03,0.01c-17.54,10.97-31.42,25.67-38.94,35.93
			c-10.84,14.78-30.86,34.59-49.27,15.52c-1.32-1.37-2.37-2.88-3.22-4.49c-0.01-0.01-0.01-0.03-0.02-0.04
			c0.05,0.06,0.1,0.11,0.15,0.17c0.04,0.06,0.1,0.11,0.15,0.17c18.41,19.07,38.42-0.74,49.27-15.52
			c7.52-10.26,21.4-24.96,38.94-35.93c0.01-0.01,0.02-0.01,0.03-0.01C276.68,129.09,286.299,127.53,292.859,127.49z"/>
		<g>
			
				<linearGradient id="SVGID_00000118386412314940411800000007343862577456499384_" gradientUnits="userSpaceOnUse" x1="189.3154" y1="264.5494" x2="265.8153" y2="155.2994">
				<stop  offset="0" style="stop-color:#D74250"/>
				<stop  offset="0.495" style="stop-color:#A500AA"/>
				<stop  offset="1" style="stop-color:#251665"/>
			</linearGradient>
			<path style="fill:url(#SVGID_00000118386412314940411800000007343862577456499384_);" d="M293.77,143.69
				c-2.9,3.25-5.79,6.77-8.28,9.89c-0.01,0-0.01,0.01-0.02,0.01c-1.9,2.38-3.55,4.52-4.78,6.13c-12.54,16.3-36.22,53.56-43.11,68.96
				c-9.39,21.03-41.17,56.32-69.78,40.78c-0.18-0.1-0.36-0.2-0.54-0.3c-0.04-0.03-0.09-0.06-0.13-0.08c-1.02-0.59-2-1.21-2.94-1.86
				c0.01-0.75,0.05-1.51,0.13-2.26c0.18,0.11,0.36,0.21,0.54,0.31c28.61,15.54,60.39-19.76,69.78-40.78
				c6.89-15.41,30.57-52.66,43.1-68.97c1.24-1.6,2.89-3.74,4.79-6.12c0.01,0,0.01-0.01,0.02-0.01
				C286.699,146.95,290.46,145.09,293.77,143.69z"/>
		</g>
		<g>
			
				<linearGradient id="SVGID_00000024003606111139685250000007280304180410809023_" gradientUnits="userSpaceOnUse" x1="250.2681" y1="290.6962" x2="297.768" y2="180.9462">
				<stop  offset="0" style="stop-color:#D74250"/>
				<stop  offset="0.495" style="stop-color:#A500AA"/>
				<stop  offset="1" style="stop-color:#251665"/>
			</linearGradient>
			<path style="fill:url(#SVGID_00000024003606111139685250000007280304180410809023_);" d="M305.659,157.98
				c-1.62,3.18-3.4,6.77-5.2,10.53c0,0.01,0,0.01-0.01,0.02c-4.17,8.72-8.43,18.37-10.9,26.15c-4.91,15.46-19.23,64.74-22.17,73.42
				c-5.07,15.01-12.29,26.1-21.11,33.66c-1.87-0.57-3.58-1.38-5.15-2.39c9.83-7.57,17.82-19.21,23.32-35.46
				c2.94-8.69,17.26-57.96,22.17-73.43c2.47-7.77,6.73-17.43,10.9-26.15c0.01-0.01,0.01-0.01,0.01-0.01
				C299.469,162.06,302.719,159.7,305.659,157.98z"/>
			
				<linearGradient id="SVGID_00000023975445375761434940000014152908476911389328_" gradientUnits="userSpaceOnUse" x1="179.8473" y1="260.2176" x2="227.3479" y2="150.466">
				<stop  offset="0" style="stop-color:#D74250"/>
				<stop  offset="0.495" style="stop-color:#A500AA"/>
				<stop  offset="1" style="stop-color:#251665"/>
			</linearGradient>
			<path style="fill:url(#SVGID_00000023975445375761434940000014152908476911389328_);" d="M169.854,283.909
				c-0.095-0.181-0.196-0.358-0.286-0.542c0.028,0.11,0.06,0.216,0.088,0.325C169.721,283.765,169.788,283.836,169.854,283.909z"/>
		</g>
		
			<linearGradient id="SVGID_00000130631684145787007060000006170068522081021876_" gradientUnits="userSpaceOnUse" x1="309.4772" y1="262.5999" x2="309.9772" y2="200.5999">
			<stop  offset="0" style="stop-color:#D74250"/>
			<stop  offset="0.495" style="stop-color:#A500AA"/>
			<stop  offset="1" style="stop-color:#251665"/>
		</linearGradient>
		<path style="fill:url(#SVGID_00000130631684145787007060000006170068522081021876_);" d="M311.539,270.05
			c0.11-3.01,0.02-6.14-0.3-9.35c-0.75-7.55-2.27-16.18-3.64-25.92c-1.36-9.73-2.58-20.56-2.73-32.52
			c1.4-6.79,2.94-13.19,4.33-18.02c-0.56,3.4-1,6.93-1.17,10.44c-0.2,4.03-0.26,7.96-0.22,11.77v0.01
			c0.31,23.9,4.87,43.33,6.37,58.43c0.18,1.83,0.29,3.63,0.33,5.4c-0.99,0.03-1.98-0.05-2.97-0.23V270.05z"/>
	</g>
	<text transform="matrix(1 0 0 1 134.0029 365.6128)" style="fill:#251665; font-family:'Raleway-Bold'; font-size:28.7123px;">company name</text>
	<text transform="matrix(1 0 0 1 159.5005 388.73)" style="fill:#D74250; font-family:'Raleway-Regular'; font-size:18.2131px;">your slogan here</text>
</g>
<g id="DESIGNED_BY_FREEPIK">
	<g>
		<g id="XMLID_319_">
			<g id="XMLID_338_">
				<path id="XMLID_346_" style="fill:#222221;" d="M260.104,465.465c-0.433,0.443-0.804,0.932-1.108,1.453l-0.465-0.241
					c-0.067-0.297-0.35-0.502-0.659-0.466c-0.331,0.039-0.567,0.339-0.529,0.67c0.039,0.331,0.339,0.567,0.67,0.528
					c0.065-0.007,0.127-0.025,0.184-0.052l0.451,0.234c-0.251,0.554-0.433,1.139-0.539,1.743l0.747,0.132
					c0.23-1.306,0.85-2.507,1.792-3.473L260.104,465.465z"/>
				<path id="XMLID_345_" style="fill:#222221;" d="M265.591,463.164c-0.171,0-0.341,0.006-0.509,0.017l-0.074-0.626
					c0.188-0.149,0.296-0.389,0.266-0.645c-0.046-0.393-0.402-0.674-0.795-0.628c-0.394,0.046-0.675,0.402-0.628,0.796
					c0.03,0.254,0.189,0.461,0.404,0.563l0.073,0.624c-0.714,0.116-1.402,0.332-2.06,0.646l0.327,0.685
					c0.935-0.447,1.941-0.674,2.995-0.674c0.497,0,0.993,0.053,1.476,0.158l0.16-0.741
					C266.692,463.222,266.142,463.164,265.591,463.164z"/>
				<path id="XMLID_344_" style="fill:#222221;" d="M272.194,465.711c0.331-0.04,0.566-0.341,0.525-0.672
					c-0.04-0.331-0.341-0.566-0.672-0.525c-0.31,0.038-0.535,0.304-0.53,0.608l-0.416,0.363c-0.418-0.43-0.89-0.813-1.407-1.14
					l-0.404,0.642c1.135,0.715,2.021,1.727,2.564,2.925l0.69-0.313c-0.251-0.554-0.567-1.071-0.942-1.545l0.402-0.351
					C272.065,465.715,272.128,465.719,272.194,465.711z"/>
				<path id="XMLID_343_" style="fill:#222221;" d="M265.044,473.372c-0.386,0.023-0.775,0.035-1.157,0.035
					c-0.88,0-1.733-0.061-2.479-0.18c-0.391-0.062-0.846-0.154-1.271-0.292c1.047,1.861,3.069,3.125,5.389,3.125
					c2.855,0,5.263-1.916,5.949-4.503c-0.682,0.449-1.505,0.825-2.458,1.122C267.838,473.047,266.463,473.287,265.044,473.372z"/>
				<path id="XMLID_339_" style="fill:#222221;" d="M265.591,464.68c-3.351,0-6.079,2.666-6.079,5.943
					c0,0.425,0.046,0.849,0.137,1.261c0.674,0.483,2.706,0.891,5.348,0.731c2.88-0.174,5.297-0.958,6.672-2.159
					c-0.005-0.194-0.021-0.39-0.045-0.581C271.244,466.914,268.65,464.68,265.591,464.68z M263.432,471.195
					c-1.02,0-1.85-0.83-1.85-1.85c0-1.021,0.83-1.851,1.85-1.851c1.02,0,1.85,0.83,1.85,1.851
					C265.282,470.365,264.452,471.195,263.432,471.195z M268.169,470.287c-0.75,0-1.36-0.61-1.36-1.36s0.61-1.36,1.36-1.36
					s1.36,0.61,1.36,1.36S268.919,470.287,268.169,470.287z"/>
			</g>
			<path id="XMLID_336_" style="fill:#222221;" d="M281.595,466.547c-0.295-0.116-0.806-0.31-1.383-0.238
				c-0.551,0.069-0.844,0.341-0.844,1.007v0.866h2.229v1.717h-2.229v5.455h-1.932v-5.455h-1.339v-1.717h1.339v-0.889
				c0-1.68,0.896-2.782,2.568-2.782c0.643,0,1.157,0.121,1.59,0.308V466.547z"/>
			<path id="XMLID_334_" style="fill:#222221;" d="M286.297,469.878c-0.177-0.029-0.357-0.046-0.525-0.046
				c-0.896,0-1.51,0.548-1.51,1.613v3.908h-1.933v-7.172h1.873v0.784c0.451-0.673,1.14-0.977,2.021-0.977
				c0.414,0,0.848,0.128,1.095,0.337L286.297,469.878z"/>
			<path id="XMLID_331_" style="fill:#222221;" d="M293.965,471.757c0,0.222-0.016,0.488-0.037,0.651h-5.085
				c0.207,1.036,0.933,1.487,1.843,1.487c0.622,0,1.295-0.252,1.813-0.689l1.133,1.243c-0.814,0.748-1.851,1.089-3.057,1.089
				c-2.198,0-3.724-1.496-3.724-3.753c0-2.258,1.48-3.797,3.627-3.797C292.543,467.99,293.958,469.522,293.965,471.757z
				 M288.851,471.091h3.175c-0.178-0.918-0.732-1.437-1.562-1.437C289.554,469.655,289.021,470.203,288.851,471.091z"/>
			<path id="XMLID_328_" style="fill:#222221;" d="M301.619,471.757c0,0.222-0.016,0.488-0.037,0.651h-5.085
				c0.207,1.036,0.933,1.487,1.843,1.487c0.622,0,1.296-0.252,1.814-0.689l1.133,1.243c-0.815,0.748-1.851,1.089-3.058,1.089
				c-2.198,0-3.723-1.496-3.723-3.753c0-2.258,1.48-3.797,3.627-3.797C300.197,467.99,301.611,469.522,301.619,471.757z
				 M296.504,471.091h3.175c-0.178-0.918-0.733-1.437-1.561-1.437C297.208,469.655,296.674,470.203,296.504,471.091z"/>
			<path id="XMLID_325_" style="fill:#222221;" d="M309.964,471.764c0,2.154-1.495,3.775-3.472,3.775
				c-0.962,0-1.644-0.378-2.109-0.933v3.708h-1.925v-10.133h1.888v0.792c0.467-0.585,1.154-0.984,2.139-0.984
				C308.469,467.99,309.964,469.611,309.964,471.764z M304.287,471.764c0,1.133,0.748,1.977,1.844,1.977
				c1.14,0,1.85-0.881,1.85-1.977c0-1.095-0.71-1.976-1.85-1.976C305.035,469.789,304.287,470.632,304.287,471.764z"/>
			<path id="XMLID_322_" style="fill:#222221;" d="M313.068,465.836c0,0.696-0.541,1.229-1.236,1.229
				c-0.696,0-1.229-0.533-1.229-1.229c0-0.695,0.532-1.243,1.229-1.243C312.527,464.592,313.068,465.14,313.068,465.836z
				 M312.808,475.354h-1.932v-7.172h1.932V475.354z"/>
			<path id="XMLID_320_" style="fill:#222221;" d="M316.032,470.736l2.702-2.554h2.368l-3.478,3.375l3.501,3.797h-2.376
				l-2.717-2.901v2.901H314.1v-10.658h1.932V470.736z"/>
		</g>
		<g>
			<path style="fill:#222221;" d="M184.412,475.29v-1.055c-0.527,0.718-1.391,1.23-2.387,1.23c-1.846,0-3.149-1.406-3.149-3.706
				c0-2.256,1.289-3.721,3.149-3.721c0.952,0,1.816,0.469,2.387,1.245v-3.765h1.099v9.771H184.412z M184.412,473.371v-3.208
				c-0.395-0.615-1.245-1.143-2.124-1.143c-1.42,0-2.27,1.172-2.27,2.739c0,1.567,0.85,2.725,2.27,2.725
				C183.167,474.484,184.017,473.986,184.412,473.371z"/>
			<path style="fill:#222221;" d="M186.932,471.745c0-2.051,1.465-3.706,3.486-3.706c2.139,0,3.398,1.67,3.398,3.794v0.278h-5.727
				c0.088,1.333,1.025,2.446,2.549,2.446c0.806,0,1.626-0.322,2.182-0.894l0.527,0.718c-0.703,0.703-1.655,1.084-2.812,1.084
				C188.44,475.465,186.932,473.957,186.932,471.745z M190.403,468.947c-1.509,0-2.256,1.274-2.314,2.358h4.644
				C192.718,470.25,192.015,468.947,190.403,468.947z"/>
			<path style="fill:#222221;" d="M194.607,474.352l0.571-0.791c0.469,0.542,1.362,1.011,2.329,1.011c1.084,0,1.67-0.513,1.67-1.216
				c0-1.714-4.38-0.659-4.38-3.281c0-1.099,0.952-2.036,2.636-2.036c1.202,0,2.051,0.454,2.623,1.025l-0.513,0.762
				c-0.424-0.513-1.201-0.894-2.109-0.894c-0.966,0-1.567,0.483-1.567,1.113c0,1.553,4.379,0.527,4.379,3.281
				c0,1.187-0.952,2.139-2.783,2.139C196.306,475.465,195.325,475.114,194.607,474.352z"/>
			<path style="fill:#222221;" d="M201.477,466.471c0-0.41,0.337-0.747,0.732-0.747c0.41,0,0.747,0.337,0.747,0.747
				c0,0.41-0.337,0.732-0.747,0.732C201.814,467.204,201.477,466.881,201.477,466.471z M201.667,475.29v-7.075h1.099v7.075H201.667z
				"/>
			<path style="fill:#222221;" d="M204.582,477.106l0.556-0.82c0.586,0.703,1.289,0.967,2.3,0.967c1.172,0,2.271-0.571,2.271-2.124
				v-1.011c-0.513,0.718-1.377,1.26-2.373,1.26c-1.846,0-3.149-1.377-3.149-3.662c0-2.271,1.289-3.677,3.149-3.677
				c0.952,0,1.802,0.469,2.373,1.245v-1.069h1.099v6.87c0,2.344-1.641,3.076-3.369,3.076
				C206.237,478.161,205.416,477.925,204.582,477.106z M209.708,473.253v-3.091c-0.381-0.615-1.23-1.143-2.109-1.143
				c-1.421,0-2.27,1.128-2.27,2.695c0,1.553,0.849,2.695,2.27,2.695C208.478,474.411,209.328,473.869,209.708,473.253z"/>
			<path style="fill:#222221;" d="M217.413,475.29v-4.629c0-1.245-0.63-1.641-1.582-1.641c-0.864,0-1.685,0.527-2.094,1.099v5.171
				h-1.099v-7.075h1.099v1.025c0.497-0.586,1.464-1.201,2.519-1.201c1.479,0,2.256,0.747,2.256,2.285v4.966H217.413z"/>
			<path style="fill:#222221;" d="M219.932,471.745c0-2.051,1.465-3.706,3.486-3.706c2.139,0,3.398,1.67,3.398,3.794v0.278h-5.727
				c0.088,1.333,1.025,2.446,2.548,2.446c0.806,0,1.626-0.322,2.183-0.894l0.527,0.718c-0.703,0.703-1.655,1.084-2.813,1.084
				C221.441,475.465,219.932,473.957,219.932,471.745z M223.404,468.947c-1.509,0-2.256,1.274-2.314,2.358h4.643
				C225.718,470.25,225.015,468.947,223.404,468.947z"/>
			<path style="fill:#222221;" d="M233.35,475.29v-1.055c-0.527,0.718-1.392,1.23-2.388,1.23c-1.845,0-3.149-1.406-3.149-3.706
				c0-2.256,1.289-3.721,3.149-3.721c0.952,0,1.817,0.469,2.388,1.245v-3.765h1.098v9.771H233.35z M233.35,473.371v-3.208
				c-0.396-0.615-1.245-1.143-2.124-1.143c-1.421,0-2.27,1.172-2.27,2.739c0,1.567,0.85,2.725,2.27,2.725
				C232.105,474.484,232.954,473.986,233.35,473.371z"/>
			<path style="fill:#222221;" d="M239.692,475.29v-9.771h1.099v3.765c0.571-0.776,1.421-1.245,2.388-1.245
				c1.845,0,3.149,1.465,3.149,3.721c0,2.3-1.304,3.706-3.149,3.706c-0.996,0-1.86-0.513-2.388-1.23v1.055H239.692z M242.9,474.484
				c1.436,0,2.285-1.157,2.285-2.725c0-1.567-0.85-2.739-2.285-2.739c-0.864,0-1.729,0.527-2.109,1.143v3.208
				C241.171,473.986,242.036,474.484,242.9,474.484z"/>
			<path style="fill:#222221;" d="M247.528,477.062c0.161,0.073,0.425,0.117,0.601,0.117c0.483,0,0.806-0.161,1.055-0.747
				l0.469-1.069l-2.959-7.148h1.187l2.358,5.801l2.344-5.801h1.2l-3.544,8.511c-0.425,1.024-1.143,1.421-2.08,1.436
				c-0.234,0-0.6-0.044-0.806-0.104L247.528,477.062z"/>
		</g>
	</g>
</g>
</svg>
